# Blender v2.80 (sub 75) OBJ File: ''
# www.blender.org
mtllib inclined.mtl
o Cube
v 20.000000 0.500000 -20.000000
v 20.000000 -0.500000 -20.000000
v 20.000000 0.500000 20.000000
v 20.000000 -0.500000 20.000000
v -20.000000 0.500000 -20.000000
v -20.000000 -0.500000 -20.000000
v -20.000000 0.500000 20.000000
v -20.000000 -0.500000 20.000000
vt 0.375000 0.000000
vt 0.625000 0.000000
vt 0.625000 0.250000
vt 0.375000 0.250000
vt 0.375000 0.250000
vt 0.625000 0.250000
vt 0.625000 0.500000
vt 0.375000 0.500000
vt 0.625000 0.750000
vt 0.375000 0.750000
vt 0.625000 0.750000
vt 0.625000 1.000000
vt 0.375000 1.000000
vt 0.125000 0.500000
vt 0.375000 0.500000
vt 0.375000 0.750000
vt 0.125000 0.750000
vt 0.625000 0.500000
vt 0.875000 0.500000
vt 0.875000 0.750000
vn 0.0000 1.0000 0.0000
vn 0.0000 0.0000 1.0000
vn -1.0000 0.0000 0.0000
vn 0.0000 -1.0000 0.0000
vn 1.0000 0.0000 0.0000
vn 0.0000 0.0000 -1.0000
usemtl Material
s off
f 1/1/1 5/2/1 7/3/1 3/4/1
f 4/5/2 3/6/2 7/7/2 8/8/2
f 8/8/3 7/7/3 5/9/3 6/10/3
f 6/10/4 2/11/4 4/12/4 8/13/4
f 2/14/5 1/15/5 3/16/5 4/17/5
f 6/18/6 5/19/6 1/20/6 2/11/6
o Plane
v 20.162052 0.223429 20.000000
v 54.803066 20.223429 20.000000
v 20.162052 0.223429 -20.000000
v 54.803066 20.223429 -20.000000
v 19.999378 0.505189 20.000000
v 54.640392 20.505188 20.000000
v 19.999378 0.505189 -20.000000
v 54.640392 20.505188 -20.000000
v 19.943203 0.505189 20.000000
v 19.943203 0.505189 -20.000000
vt 0.000000 0.000000
vt 0.000000 1.000000
vt 1.000000 1.000000
vt 1.000000 0.000000
vt 0.000000 0.000000
vt 1.000000 0.000000
vt 1.000000 1.000000
vt 0.000000 1.000000
vt 0.000000 0.000000
vt 0.000000 1.000000
vn 0.5000 -0.8660 0.0000
vn -0.5000 0.8660 0.0000
vn -0.8660 -0.5000 0.0000
vn 0.0000 0.0000 -1.0000
vn 0.0000 0.0000 1.0000
vn 0.8660 0.5000 0.0000
vn 0.0000 -1.0000 0.0000
usemtl None
s off
f 9/21/7 11/22/7 12/23/7 10/24/7
f 13/25/8 14/26/8 16/27/8 15/28/8
f 11/22/9 9/21/9 13/25/9 15/28/9
f 12/23/10 11/22/10 15/28/10 16/27/10
f 9/21/11 10/24/11 14/26/11 13/25/11
f 10/24/12 12/23/12 16/27/12 14/26/12
f 15/28/13 13/25/13 17/29/13 18/30/13
